<svg xmlns="http://www.w3.org/2000/svg" xmlns:xlink="http://www.w3.org/1999/xlink" width="500" zoomAndPan="magnify" viewBox="0 0 375 374.999991" height="500" preserveAspectRatio="xMidYMid meet" version="1.2"><defs><clipPath id="27856b0f7d"><path d="M 0 56.71875 L 375 56.71875 L 375 318.28125 L 0 318.28125 Z M 0 56.71875 "/></clipPath><clipPath id="79180c3458"><path d="M 0 56.71875 L 375 56.71875 L 375 318.28125 L 0 318.28125 Z M 0 56.71875 "/></clipPath></defs><g id="b315cf83e4"><g clip-rule="nonzero" clip-path="url(#27856b0f7d)"><path style=" stroke:none;fill-rule:nonzero;fill:#000000;fill-opacity:1;" d="M 291.019531 297.660156 C 337.324219 297.660156 375 259.957031 375 213.617188 C 375 195.148438 369.097656 177.609375 357.9375 162.898438 C 357.140625 161.84375 356.316406 160.8125 355.46875 159.800781 C 351.816406 155.4375 347.726562 151.453125 343.289062 147.917969 L 342.636719 147.398438 L 329.859375 137.214844 L 329.59375 137.003906 C 324.707031 133.105469 319.394531 129.753906 313.785156 127.023438 C 307.480469 112.085938 297.589844 99.042969 284.789062 88.835938 L 284.769531 88.820312 L 271.09375 77.925781 L 271.074219 77.910156 C 270.136719 77.160156 269.183594 76.429688 268.214844 75.714844 C 251.414062 63.285156 231.484375 56.71875 210.582031 56.71875 C 187.917969 56.71875 165.953125 64.675781 148.527344 79.167969 C 138.691406 74.789062 128.195312 72.574219 117.296875 72.574219 C 99.132812 72.574219 81.496094 79.0625 67.640625 90.847656 C 65.796875 92.414062 64.03125 94.0625 62.355469 95.785156 C 51.902344 106.511719 44.753906 120.09375 41.910156 134.777344 C 34.433594 138.605469 27.660156 143.617188 21.835938 149.59375 C 18.167969 153.359375 14.875 157.507812 12.019531 161.988281 C 4.15625 174.308594 0 188.570312 0 203.222656 C 0 227.53125 11.339844 249.242188 29.003906 263.332031 C 29.007812 263.335938 29.015625 263.339844 29.019531 263.34375 L 42.671875 274.234375 L 42.691406 274.25 L 42.707031 274.261719 C 55.828125 284.722656 72.433594 290.980469 90.476562 290.980469 C 98.535156 290.980469 106.492188 289.710938 114.160156 287.199219 L 123.773438 294.867188 C 142.585938 309.871094 166.234375 318.28125 190.449219 318.28125 C 216.1875 318.28125 241.023438 308.921875 260.585938 291.894531 C 270.351562 295.71875 280.578125 297.660156 291.019531 297.660156 Z M 291.019531 297.660156 "/></g><path style=" stroke:none;fill-rule:nonzero;fill:#d8f3dc;fill-opacity:1;" d="M 210.582031 59.542969 C 252.445312 59.542969 288.023438 86.96875 300.324219 124.8125 C 333.90625 134.757812 358.480469 165.914062 358.480469 202.703125 C 358.480469 247.484375 322.074219 283.914062 277.324219 283.914062 C 266.578125 283.914062 256.054688 281.746094 246.332031 277.703125 C 227.523438 294.617188 202.796875 304.539062 176.757812 304.539062 C 147.917969 304.539062 121.152344 292.628906 101.984375 272.769531 C 94.011719 275.683594 85.496094 277.238281 76.789062 277.238281 C 36.003906 277.238281 2.824219 244.035156 2.824219 203.222656 C 2.824219 174.015625 19.816406 148.703125 44.429688 136.671875 C 50.484375 101.90625 80.855469 75.398438 117.296875 75.398438 C 128.53125 75.398438 139.300781 77.898438 148.984375 82.480469 C 165.726562 68.019531 187.421875 59.542969 210.585938 59.542969 Z M 210.582031 59.542969 "/><g clip-rule="nonzero" clip-path="url(#79180c3458)"><path style="fill:none;stroke-width:10;stroke-linecap:butt;stroke-linejoin:miter;stroke:#000000;stroke-opacity:1;stroke-miterlimit:10;" d="M 540.21355 7.247623 C 647.607624 7.247623 738.878057 77.60442 770.433897 174.68698 C 856.583646 200.200212 919.62518 280.126977 919.62518 374.503891 C 919.62518 489.383584 826.230314 582.838575 711.430789 582.838575 C 683.86327 582.838575 656.866943 577.276971 631.924903 566.905331 C 583.674229 610.295863 520.24188 635.748971 453.442505 635.748971 C 379.458139 635.748971 310.794875 605.195221 261.622278 554.248923 C 241.169604 561.724521 219.324024 565.712842 196.98742 565.712842 C 92.359116 565.712842 7.241521 480.535122 7.241521 375.836672 C 7.241521 300.910341 50.832472 235.974855 113.974215 205.110457 C 129.506623 115.924373 207.419185 47.92249 300.904239 47.92249 C 329.724371 47.92249 357.352015 54.335871 382.193847 66.090396 C 425.14346 28.992994 480.799584 7.247623 540.223571 7.247623 Z M 540.21355 7.247623 " transform="matrix(0.38981,0,0,0.38981,0.00140167,56.717773)"/></g><g style="fill:#000000;fill-opacity:1;"><g transform="translate(82.329249, 203.847777)"><path style="stroke:none" d="M 25.921875 -30.5625 C 26.722656 -30.164062 27.191406 -29.535156 27.328125 -28.671875 C 27.460938 -27.816406 27.238281 -27.039062 26.65625 -26.34375 C 26.257812 -25.789062 25.75 -25.484375 25.125 -25.421875 C 24.5 -25.359375 23.863281 -25.484375 23.21875 -25.796875 C 22.488281 -26.128906 21.71875 -26.382812 20.90625 -26.5625 C 20.09375 -26.75 19.242188 -26.84375 18.359375 -26.84375 C 16.703125 -26.84375 15.222656 -26.582031 13.921875 -26.0625 C 12.628906 -25.539062 11.519531 -24.796875 10.59375 -23.828125 C 9.675781 -22.867188 8.976562 -21.734375 8.5 -20.421875 C 8.03125 -19.109375 7.796875 -17.65625 7.796875 -16.0625 C 7.796875 -14.195312 8.0625 -12.570312 8.59375 -11.1875 C 9.132812 -9.8125 9.878906 -8.664062 10.828125 -7.75 C 11.773438 -6.832031 12.890625 -6.148438 14.171875 -5.703125 C 15.460938 -5.265625 16.859375 -5.046875 18.359375 -5.046875 C 19.179688 -5.046875 20.003906 -5.117188 20.828125 -5.265625 C 21.660156 -5.421875 22.457031 -5.703125 23.21875 -6.109375 C 23.863281 -6.410156 24.5 -6.515625 25.125 -6.421875 C 25.75 -6.328125 26.273438 -6.007812 26.703125 -5.46875 C 27.316406 -4.695312 27.539062 -3.90625 27.375 -3.09375 C 27.207031 -2.28125 26.738281 -1.691406 25.96875 -1.328125 C 25.175781 -0.929688 24.359375 -0.601562 23.515625 -0.34375 C 22.671875 -0.0820312 21.820312 0.113281 20.96875 0.25 C 20.113281 0.382812 19.242188 0.453125 18.359375 0.453125 C 16.148438 0.453125 14.054688 0.101562 12.078125 -0.59375 C 10.109375 -1.300781 8.351562 -2.34375 6.8125 -3.71875 C 5.269531 -5.09375 4.050781 -6.8125 3.15625 -8.875 C 2.269531 -10.945312 1.828125 -13.34375 1.828125 -16.0625 C 1.828125 -18.414062 2.234375 -20.585938 3.046875 -22.578125 C 3.859375 -24.566406 5.003906 -26.285156 6.484375 -27.734375 C 7.972656 -29.191406 9.726562 -30.328125 11.75 -31.140625 C 13.769531 -31.953125 15.972656 -32.359375 18.359375 -32.359375 C 19.703125 -32.359375 21.015625 -32.203125 22.296875 -31.890625 C 23.585938 -31.585938 24.796875 -31.144531 25.921875 -30.5625 Z M 25.921875 -30.5625 "/></g></g><g style="fill:#000000;fill-opacity:1;"><g transform="translate(111.098489, 203.847777)"><path style="stroke:none" d="M 33 -16.0625 C 33 -13.769531 32.613281 -11.628906 31.84375 -9.640625 C 31.082031 -7.648438 30.003906 -5.894531 28.609375 -4.375 C 27.222656 -2.863281 25.570312 -1.679688 23.65625 -0.828125 C 21.738281 0.0234375 19.648438 0.453125 17.390625 0.453125 C 15.128906 0.453125 13.050781 0.0234375 11.15625 -0.828125 C 9.257812 -1.679688 7.613281 -2.863281 6.21875 -4.375 C 4.820312 -5.894531 3.738281 -7.648438 2.96875 -9.640625 C 2.207031 -11.628906 1.828125 -13.769531 1.828125 -16.0625 C 1.828125 -18.351562 2.207031 -20.492188 2.96875 -22.484375 C 3.738281 -24.472656 4.820312 -26.222656 6.21875 -27.734375 C 7.613281 -29.253906 9.257812 -30.441406 11.15625 -31.296875 C 13.050781 -32.148438 15.128906 -32.578125 17.390625 -32.578125 C 19.648438 -32.578125 21.738281 -32.148438 23.65625 -31.296875 C 25.570312 -30.441406 27.222656 -29.253906 28.609375 -27.734375 C 30.003906 -26.222656 31.082031 -24.472656 31.84375 -22.484375 C 32.613281 -20.492188 33 -18.351562 33 -16.0625 Z M 27.03125 -16.0625 C 27.03125 -18.113281 26.613281 -19.972656 25.78125 -21.640625 C 24.957031 -23.304688 23.828125 -24.628906 22.390625 -25.609375 C 20.953125 -26.585938 19.285156 -27.078125 17.390625 -27.078125 C 15.492188 -27.078125 13.828125 -26.585938 12.390625 -25.609375 C 10.953125 -24.628906 9.828125 -23.3125 9.015625 -21.65625 C 8.203125 -20.007812 7.796875 -18.144531 7.796875 -16.0625 C 7.796875 -14.007812 8.203125 -12.148438 9.015625 -10.484375 C 9.828125 -8.816406 10.953125 -7.492188 12.390625 -6.515625 C 13.828125 -5.535156 15.492188 -5.046875 17.390625 -5.046875 C 19.285156 -5.046875 20.953125 -5.535156 22.390625 -6.515625 C 23.828125 -7.492188 24.957031 -8.816406 25.78125 -10.484375 C 26.613281 -12.148438 27.03125 -14.007812 27.03125 -16.0625 Z M 27.03125 -16.0625 "/></g></g><g style="fill:#000000;fill-opacity:1;"><g transform="translate(145.924417, 203.847777)"><path style="stroke:none" d="M 27.8125 -32.125 C 28.539062 -32.125 29.132812 -31.878906 29.59375 -31.390625 C 30.050781 -30.898438 30.28125 -30.285156 30.28125 -29.546875 L 30.28125 -2.796875 C 30.28125 -2.003906 30.015625 -1.335938 29.484375 -0.796875 C 28.953125 -0.265625 28.285156 0 27.484375 0 C 27.085938 0 26.679688 -0.0664062 26.265625 -0.203125 C 25.859375 -0.335938 25.546875 -0.53125 25.328125 -0.78125 L 7.296875 -23.671875 L 8.484375 -24.40625 L 8.484375 -2.5625 C 8.484375 -1.832031 8.242188 -1.222656 7.765625 -0.734375 C 7.296875 -0.242188 6.679688 0 5.921875 0 C 5.179688 0 4.582031 -0.242188 4.125 -0.734375 C 3.664062 -1.222656 3.4375 -1.832031 3.4375 -2.5625 L 3.4375 -29.328125 C 3.4375 -30.117188 3.703125 -30.78125 4.234375 -31.3125 C 4.773438 -31.851562 5.441406 -32.125 6.234375 -32.125 C 6.671875 -32.125 7.117188 -32.039062 7.578125 -31.875 C 8.035156 -31.707031 8.367188 -31.453125 8.578125 -31.109375 L 26.0625 -8.8125 L 25.28125 -8.265625 L 25.28125 -29.546875 C 25.28125 -30.285156 25.507812 -30.898438 25.96875 -31.390625 C 26.425781 -31.878906 27.039062 -32.125 27.8125 -32.125 Z M 27.8125 -32.125 "/></g></g><g style="fill:#000000;fill-opacity:1;"><g transform="translate(179.649126, 203.847777)"><path style="stroke:none" d="M 14.3125 0 C 13.457031 0 12.753906 -0.265625 12.203125 -0.796875 C 11.648438 -1.335938 11.375 -2.003906 11.375 -2.796875 L 11.375 -29.421875 L 17.34375 -29.421875 L 17.34375 -2.796875 C 17.34375 -2.003906 17.0625 -1.335938 16.5 -0.796875 C 15.9375 -0.265625 15.207031 0 14.3125 0 Z M 4.171875 -26.84375 C 3.378906 -26.84375 2.710938 -27.085938 2.171875 -27.578125 C 1.640625 -28.066406 1.375 -28.707031 1.375 -29.5 C 1.375 -30.300781 1.640625 -30.9375 2.171875 -31.40625 C 2.710938 -31.882812 3.378906 -32.125 4.171875 -32.125 L 24.546875 -32.125 C 25.347656 -32.125 26.015625 -31.878906 26.546875 -31.390625 C 27.078125 -30.898438 27.34375 -30.257812 27.34375 -29.46875 C 27.34375 -28.664062 27.078125 -28.023438 26.546875 -27.546875 C 26.015625 -27.078125 25.347656 -26.84375 24.546875 -26.84375 Z M 4.171875 -26.84375 "/></g></g><g style="fill:#000000;fill-opacity:1;"><g transform="translate(206.078195, 203.847777)"><path style="stroke:none" d="M 15.234375 -24.921875 L 5.328125 -1.609375 C 5.109375 -1.023438 4.773438 -0.570312 4.328125 -0.25 C 3.890625 0.0703125 3.410156 0.234375 2.890625 0.234375 C 2.066406 0.234375 1.453125 0.00390625 1.046875 -0.453125 C 0.648438 -0.910156 0.453125 -1.476562 0.453125 -2.15625 C 0.453125 -2.425781 0.5 -2.71875 0.59375 -3.03125 L 12.015625 -30.46875 C 12.265625 -31.082031 12.640625 -31.554688 13.140625 -31.890625 C 13.648438 -32.234375 14.195312 -32.375 14.78125 -32.3125 C 15.332031 -32.3125 15.84375 -32.148438 16.3125 -31.828125 C 16.789062 -31.503906 17.132812 -31.050781 17.34375 -30.46875 L 28.640625 -3.578125 C 28.785156 -3.179688 28.859375 -2.816406 28.859375 -2.484375 C 28.859375 -1.648438 28.59375 -0.988281 28.0625 -0.5 C 27.53125 -0.0078125 26.941406 0.234375 26.296875 0.234375 C 25.742188 0.234375 25.242188 0.0664062 24.796875 -0.265625 C 24.359375 -0.609375 24.015625 -1.070312 23.765625 -1.65625 L 13.90625 -24.640625 Z M 6.75 -7.203125 L 9.265625 -12.484375 L 21.65625 -12.484375 L 22.53125 -7.203125 Z M 6.75 -7.203125 "/></g></g><g style="fill:#000000;fill-opacity:1;"><g transform="translate(235.168618, 203.847777)"><path style="stroke:none" d="M 25.921875 -30.5625 C 26.722656 -30.164062 27.191406 -29.535156 27.328125 -28.671875 C 27.460938 -27.816406 27.238281 -27.039062 26.65625 -26.34375 C 26.257812 -25.789062 25.75 -25.484375 25.125 -25.421875 C 24.5 -25.359375 23.863281 -25.484375 23.21875 -25.796875 C 22.488281 -26.128906 21.71875 -26.382812 20.90625 -26.5625 C 20.09375 -26.75 19.242188 -26.84375 18.359375 -26.84375 C 16.703125 -26.84375 15.222656 -26.582031 13.921875 -26.0625 C 12.628906 -25.539062 11.519531 -24.796875 10.59375 -23.828125 C 9.675781 -22.867188 8.976562 -21.734375 8.5 -20.421875 C 8.03125 -19.109375 7.796875 -17.65625 7.796875 -16.0625 C 7.796875 -14.195312 8.0625 -12.570312 8.59375 -11.1875 C 9.132812 -9.8125 9.878906 -8.664062 10.828125 -7.75 C 11.773438 -6.832031 12.890625 -6.148438 14.171875 -5.703125 C 15.460938 -5.265625 16.859375 -5.046875 18.359375 -5.046875 C 19.179688 -5.046875 20.003906 -5.117188 20.828125 -5.265625 C 21.660156 -5.421875 22.457031 -5.703125 23.21875 -6.109375 C 23.863281 -6.410156 24.5 -6.515625 25.125 -6.421875 C 25.75 -6.328125 26.273438 -6.007812 26.703125 -5.46875 C 27.316406 -4.695312 27.539062 -3.90625 27.375 -3.09375 C 27.207031 -2.28125 26.738281 -1.691406 25.96875 -1.328125 C 25.175781 -0.929688 24.359375 -0.601562 23.515625 -0.34375 C 22.671875 -0.0820312 21.820312 0.113281 20.96875 0.25 C 20.113281 0.382812 19.242188 0.453125 18.359375 0.453125 C 16.148438 0.453125 14.054688 0.101562 12.078125 -0.59375 C 10.109375 -1.300781 8.351562 -2.34375 6.8125 -3.71875 C 5.269531 -5.09375 4.050781 -6.8125 3.15625 -8.875 C 2.269531 -10.945312 1.828125 -13.34375 1.828125 -16.0625 C 1.828125 -18.414062 2.234375 -20.585938 3.046875 -22.578125 C 3.859375 -24.566406 5.003906 -26.285156 6.484375 -27.734375 C 7.972656 -29.191406 9.726562 -30.328125 11.75 -31.140625 C 13.769531 -31.953125 15.972656 -32.359375 18.359375 -32.359375 C 19.703125 -32.359375 21.015625 -32.203125 22.296875 -31.890625 C 23.585938 -31.585938 24.796875 -31.144531 25.921875 -30.5625 Z M 25.921875 -30.5625 "/></g></g><g style="fill:#000000;fill-opacity:1;"><g transform="translate(263.937858, 203.847777)"><path style="stroke:none" d="M 14.3125 0 C 13.457031 0 12.753906 -0.265625 12.203125 -0.796875 C 11.648438 -1.335938 11.375 -2.003906 11.375 -2.796875 L 11.375 -29.421875 L 17.34375 -29.421875 L 17.34375 -2.796875 C 17.34375 -2.003906 17.0625 -1.335938 16.5 -0.796875 C 15.9375 -0.265625 15.207031 0 14.3125 0 Z M 4.171875 -26.84375 C 3.378906 -26.84375 2.710938 -27.085938 2.171875 -27.578125 C 1.640625 -28.066406 1.375 -28.707031 1.375 -29.5 C 1.375 -30.300781 1.640625 -30.9375 2.171875 -31.40625 C 2.710938 -31.882812 3.378906 -32.125 4.171875 -32.125 L 24.546875 -32.125 C 25.347656 -32.125 26.015625 -31.878906 26.546875 -31.390625 C 27.078125 -30.898438 27.34375 -30.257812 27.34375 -29.46875 C 27.34375 -28.664062 27.078125 -28.023438 26.546875 -27.546875 C 26.015625 -27.078125 25.347656 -26.84375 24.546875 -26.84375 Z M 4.171875 -26.84375 "/></g></g></g></svg>